HIERARCHY
ROOT Hips
{
	OFFSET -0.001795 -0.223333 0.028219
	CHANNELS 6 Xposition Yposition Zposition Zrotation Yrotation Xrotation 
	JOINT LeftUpLeg
	{
		OFFSET 0.069520 -0.091406 -0.006815
		CHANNELS 3 Zrotation Yrotation Xrotation
		JOINT LeftLeg
		{
			OFFSET 0.034277 -0.375199 -0.004496
			CHANNELS 3 Zrotation Yrotation Xrotation
			JOINT LeftFoot
			{
				OFFSET -0.013596 -0.397961 -0.043693
				CHANNELS 3 Zrotation Yrotation Xrotation
				JOINT LeftToe
				{
					OFFSET 0.026358 -0.055791 0.119288
					CHANNELS 3 Zrotation Yrotation Xrotation
					End Site
					{
						OFFSET 0.000000 0.000000 0.000000
					}
				}
			}
		}
	}
	JOINT RightUpLeg
	{
		OFFSET -0.067670 -0.090522 -0.004320
		CHANNELS 3 Zrotation Yrotation Xrotation
		JOINT RightLeg
		{
			OFFSET -0.038290 -0.382569 -0.008850
			CHANNELS 3 Zrotation Yrotation Xrotation
			JOINT RightFoot
			{
				OFFSET 0.015774 -0.398415 -0.042312
				CHANNELS 3 Zrotation Yrotation Xrotation
				JOINT RightToe
				{
					OFFSET -0.025372 -0.048144 0.123348
					CHANNELS 3 Zrotation Yrotation Xrotation
					End Site
					{
						OFFSET 0.000000 0.000000 0.000000
					}
				}
			}
		}
	}
	JOINT Spine
	{
		OFFSET -0.002533 0.108963 -0.026696
		CHANNELS 3 Zrotation Yrotation Xrotation
		JOINT Spine1
		{
			OFFSET 0.005487 0.135180 0.001092
			CHANNELS 3 Zrotation Yrotation Xrotation
			JOINT Spine2
			{
				OFFSET 0.001457 0.052922 0.025425
				CHANNELS 3 Zrotation Yrotation Xrotation
				JOINT Neck
				{
					OFFSET -0.002778 0.213870 -0.042857
					CHANNELS 3 Zrotation Yrotation Xrotation
					JOINT Head
					{
						OFFSET 0.005152 0.064970 0.051349
						CHANNELS 3 Zrotation Yrotation Xrotation
						End Site
						{
							OFFSET 0.000000 0.000000 0.000000
						}
					}
				}
				JOINT LeftShoulder
				{
					OFFSET 0.078845 0.121749 -0.034090
					CHANNELS 3 Zrotation Yrotation Xrotation
					JOINT LeftArm
					{
						OFFSET 0.090977 0.030469 -0.008868
						CHANNELS 3 Zrotation Yrotation Xrotation
						JOINT LeftForeArm
						{
							OFFSET 0.259612 -0.012772 -0.027456
							CHANNELS 3 Zrotation Yrotation Xrotation
							JOINT LeftHand
							{
								OFFSET 0.249234 0.008986 -0.001171
								CHANNELS 3 Zrotation Yrotation Xrotation
								End Site
								{
									OFFSET 0.000000 0.000000 0.000000
								}
							}
						}
					}
				}
				JOINT RightShoulder
				{
					OFFSET -0.081759 0.118833 -0.038615
					CHANNELS 3 Zrotation Yrotation Xrotation
					JOINT RightArm
					{
						OFFSET -0.096012 0.032551 -0.009143
						CHANNELS 3 Zrotation Yrotation Xrotation
						JOINT RightForeArm
						{
							OFFSET -0.253742 -0.013329 -0.021401
							CHANNELS 3 Zrotation Yrotation Xrotation
							JOINT RightHand
							{
								OFFSET -0.255298 0.007772 -0.005559
								CHANNELS 3 Zrotation Yrotation Xrotation
								End Site
								{
									OFFSET 0.000000 0.000000 0.000000
								}
							}
						}
					}
				}
			}
		}
	}
}
MOTION
Frames: 16
Frame Time: 0.050000
0.009374 0.926973 -0.008011 -0.629220 -4.659067 15.932902 0.738994 -2.453449 -34.819596 -2.968710 0.392570 18.420406 0.789647 3.627725 5.657471 0.000000 0.000000 0.000000 -3.222258 3.229438 -35.258564 -0.560408 1.435307 24.367774 -4.368442 -12.380436 3.202313 0.000000 0.000000 0.000000 4.116808 -2.589110 36.087696 1.075506 -0.466053 0.552080 -7.758744 10.735666 5.140852 22.080036 -6.746784 -30.332550 0.000000 0.000000 0.000000 -7.152894 -39.582499 15.353750 -1.577052 -47.223013 -3.271340 62.540693 -40.072717 -23.079841 0.000000 0.000000 0.000000 -3.412858 23.950075 9.081178 14.086477 52.239874 3.632281 -50.618192 28.053745 -9.334461 0.000000 0.000000 0.000000 
0.010933 0.928715 -0.003757 -0.287288 -6.492486 15.293763 0.519540 -2.251424 -33.298622 -3.456602 0.587483 16.966094 1.589240 5.020464 5.706177 0.000000 0.000000 0.000000 -3.565177 3.249504 -34.475849 -0.659943 1.569792 24.251161 -4.204499 -12.035677 3.093174 0.000000 0.000000 0.000000 4.283476 -2.310460 34.061636 1.545858 -0.649299 -0.239770 -7.662117 11.668897 6.391296 22.294287 -6.986363 -30.295881 0.000000 0.000000 0.000000 -8.418731 -38.388473 14.982464 -7.162362 -45.037551 -1.212390 66.245696 -46.684106 -29.540988 0.000000 0.000000 0.000000 -0.882452 24.120619 9.735467 17.259139 51.876886 4.693485 -51.363167 31.841320 -11.202980 0.000000 0.000000 0.000000 
0.011392 0.930688 0.000339 -0.255884 -8.157249 14.140209 0.330339 -2.057971 -31.125329 -3.658440 0.692172 15.964026 2.508573 6.497341 5.127594 0.000000 0.000000 0.000000 -2.989215 3.350830 -32.926485 -1.309821 1.849544 23.902104 -3.952548 -11.394988 2.805265 0.000000 0.000000 0.000000 4.711515 -2.180242 32.283276 1.697566 -0.716573 -0.121342 -7.415651 12.159004 6.508917 22.497662 -7.118187 -30.507757 0.000000 0.000000 0.000000 -10.815755 -36.490541 14.517401 -12.461503 -42.834391 0.588018 70.152264 -53.805237 -37.219440 0.000000 0.000000 0.000000 1.284903 23.357893 9.879918 23.882889 51.259006 7.214748 -54.370616 37.753687 -14.828717 0.000000 0.000000 0.000000 
0.010678 0.932809 0.004290 -0.141252 -10.143770 13.570434 0.221090 -1.857150 -29.326403 -3.986257 0.797215 14.022816 4.200576 9.557581 5.109182 0.000000 0.000000 0.000000 -2.654364 3.497746 -32.180496 -1.290956 1.895701 23.220063 -4.124761 -11.971464 3.155087 0.000000 0.000000 0.000000 4.829896 -1.932661 30.020238 1.979066 -0.814509 -1.339642 -6.766546 12.371405 7.912533 21.375787 -6.377470 -31.952439 0.000000 0.000000 0.000000 -10.635437 -33.582434 13.212006 -19.413767 -40.803379 2.424301 74.655455 -61.154739 -46.312815 0.000000 0.000000 0.000000 4.147361 21.317035 9.533280 30.768035 49.312505 9.184043 -58.198173 48.148509 -21.792172 0.000000 0.000000 0.000000 
0.008613 0.933719 0.008120 -0.145208 -12.673673 12.754069 0.187821 -1.619415 -27.048608 -3.946218 0.841899 12.916643 5.074741 10.951088 3.808915 0.000000 0.000000 0.000000 -1.551272 3.783217 -31.204836 -1.757041 2.220784 23.536302 -4.014386 -11.587846 2.562406 0.000000 0.000000 0.000000 4.589433 -1.568781 27.305968 2.332258 -0.960436 -1.758276 -6.557367 11.916357 8.499617 20.683353 -6.294777 -32.029995 0.000000 0.000000 0.000000 -12.517570 -30.377501 12.292666 -25.316694 -36.514615 3.341925 80.046905 -68.323473 -56.594579 0.000000 0.000000 0.000000 8.484951 19.164577 9.173762 37.465218 44.564454 9.730361 -62.544975 60.817454 -32.255952 0.000000 0.000000 0.000000 
0.005171 0.935117 0.012231 -0.015993 -14.770680 11.905080 0.261825 -1.425201 -24.825084 -3.878195 0.822101 11.076207 6.877260 14.354370 3.664062 0.000000 0.000000 0.000000 -0.962277 3.832182 -29.880110 -0.941795 2.114155 23.609135 -4.608032 -12.973122 2.586321 0.000000 0.000000 0.000000 4.358707 -1.305059 24.117416 2.997839 -1.236161 -2.502544 -6.438446 10.298732 9.588617 18.535714 -5.817119 -31.516022 0.000000 0.000000 0.000000 -13.510727 -26.385104 11.080826 -30.608003 -31.444962 3.277585 90.973632 -76.175181 -73.203123 0.000000 0.000000 0.000000 13.382789 16.453367 8.087451 41.162433 38.749905 8.392072 -69.020371 73.733046 -47.512922 0.000000 0.000000 0.000000 
0.000502 0.935958 0.016264 -0.396945 -17.585036 10.821718 0.845126 -1.127468 -22.279432 -4.038735 0.904023 10.045197 7.589034 15.702347 3.142497 0.000000 0.000000 0.000000 0.751626 4.053078 -28.388445 -1.241595 2.462256 24.212463 -4.396326 -12.165689 1.837409 0.000000 0.000000 0.000000 3.801146 -0.990888 20.615463 3.434230 -1.432569 -2.076879 -6.233166 8.738756 9.620795 17.039507 -5.777372 -30.320197 0.000000 0.000000 0.000000 -14.853250 -22.033271 9.744167 -35.056103 -26.790282 2.668583 104.814148 -82.184831 -91.921017 0.000000 0.000000 0.000000 17.237274 13.775796 6.260797 44.806491 31.320917 6.467934 -75.072397 84.330302 -63.810795 0.000000 0.000000 0.000000 
-0.005234 0.937513 0.020066 -0.539282 -21.498838 9.213054 1.161705 -0.878218 -19.724857 -3.753266 0.910517 9.224378 8.601755 17.780641 2.460894 0.000000 0.000000 0.000000 1.758621 3.879491 -25.753211 -1.064324 2.616789 23.928379 -5.004118 -13.491293 1.971483 0.000000 0.000000 0.000000 3.209405 -0.707867 17.810257 3.177799 -1.341151 -2.439608 -5.929413 7.203509 10.685012 14.434617 -5.314623 -29.249459 0.000000 0.000000 0.000000 -16.268315 -17.813302 8.684681 -37.724992 -22.791642 1.515339 140.367995 -86.342885 -131.066829 0.000000 0.000000 0.000000 20.423805 11.169490 3.729735 47.257912 24.132696 4.232905 93.361531 88.329536 95.331640 0.000000 0.000000 0.000000 
-0.010813 0.938632 0.023096 -1.051282 -26.538753 8.220167 2.243531 -0.500313 -17.507798 -4.321554 1.182671 8.861430 10.030533 20.833001 2.081309 0.000000 0.000000 0.000000 3.104972 3.820821 -23.787700 -0.975850 2.881092 23.900298 -5.166728 -13.792374 2.169527 0.000000 0.000000 0.000000 2.751933 -0.516359 14.926805 2.764098 -1.181954 -2.614726 -5.610442 6.081167 10.735635 13.471501 -5.513629 -28.421694 0.000000 0.000000 0.000000 -17.282608 -14.157835 7.877571 -40.751548 -19.904980 0.579903 -141.430902 -88.244483 148.817169 0.000000 0.000000 0.000000 22.554643 8.941654 0.926837 48.807876 17.736839 2.284766 60.931869 82.478906 55.494045 0.000000 0.000000 0.000000 
-0.016204 0.940201 0.025551 -1.282726 -31.011867 6.942998 2.257552 -0.373500 -15.368825 -4.264281 1.474973 10.507834 10.537364 22.681049 0.521056 0.000000 0.000000 0.000000 4.344203 3.437282 -21.071359 -2.033727 3.096527 22.291601 -5.675125 -14.357888 1.865925 0.000000 0.000000 0.000000 2.702007 -0.430157 13.642131 2.706867 -1.197608 -3.464117 -5.745279 4.166322 10.468377 12.399275 -5.629113 -27.759677 0.000000 0.000000 0.000000 -18.791629 -10.591087 7.289970 -42.323932 -16.728753 -0.709843 -59.903447 -86.259353 66.443748 0.000000 0.000000 0.000000 23.765765 7.502099 -1.800479 50.075873 11.425059 0.401395 46.717913 76.488807 35.975660 0.000000 0.000000 0.000000 
-0.021292 0.942032 0.027812 -1.027630 -36.697839 5.658858 2.604881 -0.127653 -14.768281 -4.833956 2.285203 13.441196 11.906244 25.000516 2.064383 0.000000 0.000000 0.000000 5.090856 2.885733 -18.275663 -2.491950 2.983550 20.172162 -5.317810 -12.262548 0.567325 0.000000 0.000000 0.000000 2.181650 -0.322902 10.951513 2.545882 -1.126295 -3.131898 -6.072397 2.935130 10.628461 11.383240 -5.550448 -28.436087 0.000000 0.000000 0.000000 -19.043654 -7.519049 6.716283 -44.554108 -16.380991 -0.946136 -17.827798 -79.503922 24.733476 0.000000 0.000000 0.000000 24.135756 5.151118 -4.932931 50.825312 7.490626 -0.768213 33.441346 67.155148 19.455284 0.000000 0.000000 0.000000 
-0.026646 0.943276 0.030165 -1.080048 -41.654234 4.449752 3.266545 0.255819 -15.381043 -5.298981 3.719644 18.285928 11.573296 24.587281 1.347089 0.000000 0.000000 0.000000 5.410022 2.011530 -14.555197 -3.202413 2.667713 17.443229 -4.706331 -9.334634 -0.595653 0.000000 0.000000 0.000000 1.991216 -0.276495 9.406065 2.941570 -1.303081 -3.740677 -6.619742 1.740666 10.722505 11.184178 -6.203838 -26.785688 0.000000 0.000000 0.000000 -19.442276 -4.196787 5.944569 -45.109611 -14.943740 -1.691736 -10.672597 -71.539781 17.226660 0.000000 0.000000 0.000000 24.020057 3.651752 -7.364365 51.036085 3.223148 -2.157594 26.511675 58.426122 11.280004 0.000000 0.000000 0.000000 
-0.031325 0.942924 0.032542 -1.809928 -48.581669 4.635402 4.514543 1.017816 -16.327612 -5.609566 6.043738 23.602489 12.421381 26.868999 0.242322 0.000000 0.000000 0.000000 5.741929 1.687246 -13.178800 -3.894044 2.678575 16.361699 -4.304114 -5.618793 -2.641136 0.000000 0.000000 0.000000 1.782331 -0.249577 7.807114 3.695123 -1.478884 -3.458486 -6.649874 2.579600 9.774208 11.017550 -6.413905 -26.637462 0.000000 0.000000 0.000000 -20.578660 -3.060153 6.234640 -45.058124 -13.506282 -2.394717 -4.353763 -63.371733 10.776288 0.000000 0.000000 0.000000 24.197676 1.781580 -9.484450 49.421133 1.256507 -2.548748 21.547942 50.149603 6.821721 0.000000 0.000000 0.000000 
-0.035473 0.942203 0.035782 -3.371001 -53.449076 4.407262 5.165099 1.594615 -16.948194 -3.274573 7.772052 29.815554 9.447409 23.670834 -5.638107 0.000000 0.000000 0.000000 5.543705 1.161130 -10.998427 -2.995886 2.430203 15.752234 -4.098031 -3.241095 -3.657224 0.000000 0.000000 0.000000 3.113592 -0.311009 8.224724 3.515359 -1.514089 -5.174422 -6.579926 0.681084 10.002549 12.274718 -7.286200 -27.643692 0.000000 0.000000 0.000000 -21.348132 -0.493764 6.302404 -45.031628 -12.932473 -2.996434 -7.802518 -57.275580 11.948319 0.000000 0.000000 0.000000 20.667140 0.504827 -10.320460 51.206746 -0.357888 -3.661697 18.396486 44.175254 3.778538 0.000000 0.000000 0.000000 
-0.039180 0.942723 0.040421 -4.897941 -62.053374 5.662188 4.638478 2.211851 -17.876311 0.664617 7.938792 31.807313 6.040777 16.308427 -6.522964 0.000000 0.000000 0.000000 6.128514 0.909020 -10.043329 -4.979141 2.774819 15.375030 -2.442834 4.903627 -5.678996 0.000000 0.000000 0.000000 3.543099 -0.306522 8.000112 2.911554 -1.292560 -6.094082 -5.346217 2.725024 9.549001 11.503499 -7.232961 -27.828842 0.000000 0.000000 0.000000 -24.115034 -0.150519 7.943447 -43.634128 -12.321824 -3.831729 -1.131353 -50.724741 6.628771 0.000000 0.000000 0.000000 21.319785 -0.169728 -12.043024 49.819508 -2.314478 -4.072533 13.778222 40.677595 1.776032 0.000000 0.000000 0.000000 
-0.042564 0.944331 0.045861 -8.290707 -69.574437 8.053005 1.565661 1.695354 -18.027856 8.094310 6.276140 33.323469 -1.453832 0.820719 -8.100563 0.000000 0.000000 0.000000 7.182206 0.452545 -7.791353 -5.616836 2.556365 13.966198 -0.568463 9.302289 -4.898133 0.000000 0.000000 0.000000 3.786887 -0.247354 8.320544 3.883294 -1.382094 -5.962332 -4.963689 0.456032 10.459724 11.170096 -7.832521 -26.422673 0.000000 0.000000 0.000000 -23.393540 4.253066 6.852497 -45.985561 -11.843746 -4.080015 -3.289665 -45.282588 7.211001 0.000000 0.000000 0.000000 18.197267 1.109174 -12.180824 51.872893 -0.837227 -4.018487 9.789286 36.346394 -0.468321 0.000000 0.000000 0.000000 
